<svg width="246" height="48" viewBox="0 0 246 48" fill="none" xmlns="http://www.w3.org/2000/svg">
<path d="M0.710227 6.99006V4.45455H12.6562V6.99006H8.20312V19H5.16335V6.99006H0.710227ZM14.6236 19V4.45455H24.4247V6.99006H17.6989V10.456H23.9205V12.9915H17.6989V16.4645H24.4531V19H14.6236ZM32.0259 19H26.8697V4.45455H32.0685C33.5316 4.45455 34.7911 4.74574 35.8469 5.32812C36.9028 5.90578 37.7148 6.73674 38.283 7.82102C38.8559 8.9053 39.1424 10.2027 39.1424 11.7131C39.1424 13.2282 38.8559 14.5303 38.283 15.6193C37.7148 16.7083 36.8981 17.544 35.8327 18.1264C34.7721 18.7088 33.5032 19 32.0259 19ZM29.945 16.3651H31.8981C32.8072 16.3651 33.5719 16.2041 34.1921 15.8821C34.8171 15.5554 35.2859 15.0511 35.5984 14.3693C35.9156 13.6828 36.0742 12.7973 36.0742 11.7131C36.0742 10.6383 35.9156 9.75994 35.5984 9.07812C35.2859 8.39631 34.8195 7.89441 34.1992 7.57244C33.579 7.25047 32.8143 7.08949 31.9052 7.08949H29.945V16.3651Z" fill="#FF0000"/>
<path d="M41.4886 4.27273L43.2486 7.24716H43.3168L45.0852 4.27273H47.169L44.5057 8.63636L47.2287 13H45.1065L43.3168 10.0213H43.2486L41.4588 13H39.3452L42.0767 8.63636L39.3963 4.27273H41.4886Z" fill="#FF0000"/>
<path d="M56.4205 19H51.2642V4.45455H56.4631C57.9261 4.45455 59.1856 4.74574 60.2415 5.32812C61.2973 5.90578 62.1094 6.73674 62.6776 7.82102C63.2505 8.9053 63.5369 10.2027 63.5369 11.7131C63.5369 13.2282 63.2505 14.5303 62.6776 15.6193C62.1094 16.7083 61.2926 17.544 60.2273 18.1264C59.1667 18.7088 57.8977 19 56.4205 19ZM54.3395 16.3651H56.2926C57.2017 16.3651 57.9664 16.2041 58.5866 15.8821C59.2116 15.5554 59.6804 15.0511 59.9929 14.3693C60.3101 13.6828 60.4688 12.7973 60.4688 11.7131C60.4688 10.6383 60.3101 9.75994 59.9929 9.07812C59.6804 8.39631 59.214 7.89441 58.5938 7.57244C57.9735 7.25047 57.2088 7.08949 56.2997 7.08949H54.3395V16.3651ZM70.7298 19.2131C69.6076 19.2131 68.6417 18.9858 67.832 18.5312C67.0271 18.072 66.4068 17.4233 65.9712 16.5852C65.5356 15.7424 65.3178 14.7457 65.3178 13.5952C65.3178 12.473 65.5356 11.4882 65.9712 10.6406C66.4068 9.79309 67.02 9.13258 67.8107 8.65909C68.6062 8.18561 69.5389 7.94886 70.609 7.94886C71.3287 7.94886 71.9987 8.06487 72.619 8.29688C73.244 8.52415 73.7885 8.86742 74.2525 9.3267C74.7212 9.78598 75.0858 10.3636 75.3462 11.0597C75.6067 11.7509 75.7369 12.5606 75.7369 13.4886V14.3196H66.5252V12.4446H72.8888C72.8888 12.009 72.7942 11.6231 72.6048 11.2869C72.4154 10.9508 72.1526 10.688 71.8164 10.4986C71.485 10.3045 71.0991 10.2074 70.6587 10.2074C70.1995 10.2074 69.7923 10.3139 69.4371 10.527C69.0868 10.7353 68.8121 11.017 68.6133 11.3722C68.4144 11.7225 68.3126 12.1132 68.3079 12.544V14.3267C68.3079 14.8665 68.4073 15.3329 68.6062 15.7259C68.8098 16.1188 69.0962 16.4219 69.4656 16.6349C69.8349 16.848 70.2728 16.9545 70.7795 16.9545C71.1156 16.9545 71.4234 16.9072 71.7028 16.8125C71.9821 16.7178 72.2212 16.5758 72.4201 16.3864C72.619 16.197 72.7705 15.965 72.8746 15.6903L75.6729 15.875C75.5309 16.5473 75.2397 17.1345 74.7994 17.6364C74.3638 18.1335 73.8003 18.5218 73.109 18.8011C72.4225 19.0758 71.6294 19.2131 70.7298 19.2131ZM77.7681 19V4.45455H80.7937V9.9233H80.886C81.0186 9.62973 81.2103 9.33144 81.4613 9.02841C81.717 8.72064 82.0484 8.46496 82.4556 8.26136C82.8675 8.05303 83.3789 7.94886 83.9897 7.94886C84.7852 7.94886 85.5191 8.1572 86.1914 8.57386C86.8638 8.9858 87.4012 9.60843 87.8036 10.4418C88.2061 11.2704 88.4073 12.3097 88.4073 13.5597C88.4073 14.7765 88.2108 15.804 87.8178 16.642C87.4296 17.4754 86.8993 18.1075 86.2269 18.5384C85.5593 18.9645 84.8112 19.1776 83.9826 19.1776C83.3955 19.1776 82.896 19.0805 82.484 18.8864C82.0768 18.6922 81.743 18.4484 81.4826 18.1548C81.2222 17.8565 81.0233 17.5559 80.886 17.2528H80.7511V19H77.7681ZM80.7298 13.5455C80.7298 14.1941 80.8197 14.7599 80.9996 15.2429C81.1796 15.7259 81.44 16.1023 81.7809 16.3722C82.1218 16.6373 82.5361 16.7699 83.0238 16.7699C83.5162 16.7699 83.9329 16.6349 84.2738 16.3651C84.6147 16.0904 84.8728 15.7116 85.0479 15.2287C85.2279 14.741 85.3178 14.1799 85.3178 13.5455C85.3178 12.9157 85.2302 12.3617 85.055 11.8835C84.8799 11.4053 84.6218 11.0312 84.2809 10.7614C83.94 10.4915 83.521 10.3565 83.0238 10.3565C82.5314 10.3565 82.1147 10.4867 81.7738 10.7472C81.4376 11.0076 81.1796 11.3769 80.9996 11.8551C80.8197 12.3333 80.7298 12.8968 80.7298 13.5455ZM90.4261 19V8.09091H93.3594V9.99432H93.473C93.6719 9.31723 94.0057 8.80587 94.4744 8.46023C94.9432 8.10985 95.483 7.93466 96.0938 7.93466C96.2453 7.93466 96.4086 7.94413 96.5838 7.96307C96.759 7.98201 96.9129 8.00805 97.0455 8.04119V10.7259C96.9034 10.6832 96.7069 10.6454 96.456 10.6122C96.205 10.5791 95.9754 10.5625 95.767 10.5625C95.322 10.5625 94.9242 10.6596 94.5739 10.8537C94.2282 11.0431 93.9536 11.3082 93.75 11.6491C93.5511 11.9901 93.4517 12.383 93.4517 12.8281V19H90.4261ZM103.074 19.2131C101.951 19.2131 100.985 18.9858 100.176 18.5312C99.3709 18.072 98.7506 17.4233 98.315 16.5852C97.8794 15.7424 97.6616 14.7457 97.6616 13.5952C97.6616 12.473 97.8794 11.4882 98.315 10.6406C98.7506 9.79309 99.3638 9.13258 100.154 8.65909C100.95 8.18561 101.883 7.94886 102.953 7.94886C103.672 7.94886 104.342 8.06487 104.963 8.29688C105.588 8.52415 106.132 8.86742 106.596 9.3267C107.065 9.78598 107.43 10.3636 107.69 11.0597C107.95 11.7509 108.081 12.5606 108.081 13.4886V14.3196H98.869V12.4446H105.233C105.233 12.009 105.138 11.6231 104.949 11.2869C104.759 10.9508 104.496 10.688 104.16 10.4986C103.829 10.3045 103.443 10.2074 103.002 10.2074C102.543 10.2074 102.136 10.3139 101.781 10.527C101.431 10.7353 101.156 11.017 100.957 11.3722C100.758 11.7225 100.656 12.1132 100.652 12.544V14.3267C100.652 14.8665 100.751 15.3329 100.95 15.7259C101.154 16.1188 101.44 16.4219 101.809 16.6349C102.179 16.848 102.617 16.9545 103.123 16.9545C103.459 16.9545 103.767 16.9072 104.047 16.8125C104.326 16.7178 104.565 16.5758 104.764 16.3864C104.963 16.197 105.114 15.965 105.218 15.6903L108.017 15.875C107.875 16.5473 107.583 17.1345 107.143 17.6364C106.708 18.1335 106.144 18.5218 105.453 18.8011C104.766 19.0758 103.973 19.2131 103.074 19.2131ZM114.984 19.2131C113.867 19.2131 112.905 18.9763 112.1 18.5028C111.3 18.0246 110.685 17.3617 110.254 16.5142C109.828 15.6667 109.615 14.6913 109.615 13.5881C109.615 12.4706 109.83 11.4905 110.261 10.6477C110.697 9.80019 111.315 9.13968 112.115 8.66619C112.915 8.18797 113.867 7.94886 114.97 7.94886C115.922 7.94886 116.755 8.12169 117.47 8.46733C118.185 8.81297 118.751 9.2983 119.167 9.9233C119.584 10.5483 119.814 11.2822 119.856 12.125H117.001C116.921 11.5805 116.708 11.1425 116.362 10.8111C116.021 10.4749 115.574 10.3068 115.02 10.3068C114.551 10.3068 114.141 10.4347 113.791 10.6903C113.445 10.9413 113.175 11.3082 112.981 11.7912C112.787 12.2741 112.69 12.8589 112.69 13.5455C112.69 14.2415 112.785 14.8333 112.974 15.321C113.168 15.8087 113.44 16.1804 113.791 16.4361C114.141 16.6918 114.551 16.8196 115.02 16.8196C115.365 16.8196 115.675 16.7486 115.95 16.6065C116.229 16.4645 116.459 16.2585 116.639 15.9886C116.824 15.714 116.944 15.3849 117.001 15.0014H119.856C119.809 15.8348 119.582 16.5687 119.174 17.2031C118.772 17.8329 118.216 18.3253 117.505 18.6804C116.795 19.0355 115.955 19.2131 114.984 19.2131ZM126.765 19.2131C125.643 19.2131 124.677 18.9858 123.867 18.5312C123.062 18.072 122.442 17.4233 122.006 16.5852C121.571 15.7424 121.353 14.7457 121.353 13.5952C121.353 12.473 121.571 11.4882 122.006 10.6406C122.442 9.79309 123.055 9.13258 123.846 8.65909C124.641 8.18561 125.574 7.94886 126.644 7.94886C127.364 7.94886 128.034 8.06487 128.654 8.29688C129.279 8.52415 129.824 8.86742 130.288 9.3267C130.756 9.78598 131.121 10.3636 131.381 11.0597C131.642 11.7509 131.772 12.5606 131.772 13.4886V14.3196H122.56V12.4446H128.924C128.924 12.009 128.829 11.6231 128.64 11.2869C128.451 10.9508 128.188 10.688 127.852 10.4986C127.52 10.3045 127.134 10.2074 126.694 10.2074C126.235 10.2074 125.827 10.3139 125.472 10.527C125.122 10.7353 124.847 11.017 124.648 11.3722C124.45 11.7225 124.348 12.1132 124.343 12.544V14.3267C124.343 14.8665 124.442 15.3329 124.641 15.7259C124.845 16.1188 125.131 16.4219 125.501 16.6349C125.87 16.848 126.308 16.9545 126.815 16.9545C127.151 16.9545 127.459 16.9072 127.738 16.8125C128.017 16.7178 128.256 16.5758 128.455 16.3864C128.654 16.197 128.806 15.965 128.91 15.6903L131.708 15.875C131.566 16.5473 131.275 17.1345 130.835 17.6364C130.399 18.1335 129.835 18.5218 129.144 18.8011C128.458 19.0758 127.665 19.2131 126.765 19.2131ZM136.772 12.6932V19H133.746V8.09091H136.63V10.0156H136.758C136.999 9.38116 137.404 8.87926 137.972 8.50994C138.54 8.13589 139.229 7.94886 140.039 7.94886C140.797 7.94886 141.457 8.11458 142.021 8.44602C142.584 8.77746 143.022 9.25095 143.335 9.86648C143.647 10.4773 143.803 11.2064 143.803 12.054V19H140.778V12.5938C140.782 11.9261 140.612 11.4053 140.266 11.0312C139.921 10.6525 139.445 10.4631 138.839 10.4631C138.432 10.4631 138.072 10.5507 137.759 10.7259C137.451 10.901 137.21 11.1567 137.035 11.4929C136.864 11.8243 136.777 12.2244 136.772 12.6932ZM155.229 4.45455H158.304V13.9006C158.304 14.9612 158.051 15.8892 157.544 16.6847C157.042 17.4801 156.339 18.1004 155.435 18.5455C154.531 18.9858 153.477 19.206 152.275 19.206C151.067 19.206 150.011 18.9858 149.107 18.5455C148.203 18.1004 147.499 17.4801 146.998 16.6847C146.496 15.8892 146.245 14.9612 146.245 13.9006V4.45455H149.32V13.6378C149.32 14.1918 149.441 14.6842 149.682 15.1151C149.928 15.5459 150.274 15.8845 150.719 16.1307C151.164 16.3769 151.683 16.5 152.275 16.5C152.871 16.5 153.39 16.3769 153.83 16.1307C154.275 15.8845 154.618 15.5459 154.86 15.1151C155.106 14.6842 155.229 14.1918 155.229 13.6378V4.45455ZM163.803 12.6932V19H160.778V8.09091H163.661V10.0156H163.789C164.031 9.38116 164.435 8.87926 165.004 8.50994C165.572 8.13589 166.261 7.94886 167.07 7.94886C167.828 7.94886 168.488 8.11458 169.052 8.44602C169.615 8.77746 170.053 9.25095 170.366 9.86648C170.678 10.4773 170.835 11.2064 170.835 12.054V19H167.809V12.5938C167.814 11.9261 167.643 11.4053 167.298 11.0312C166.952 10.6525 166.476 10.4631 165.87 10.4631C165.463 10.4631 165.103 10.5507 164.79 10.7259C164.483 10.901 164.241 11.1567 164.066 11.4929C163.896 11.8243 163.808 12.2244 163.803 12.6932ZM173.219 19V8.09091H176.245V19H173.219ZM174.739 6.68466C174.289 6.68466 173.903 6.53551 173.581 6.23722C173.264 5.93419 173.105 5.57197 173.105 5.15057C173.105 4.7339 173.264 4.37642 173.581 4.07812C173.903 3.77509 174.289 3.62358 174.739 3.62358C175.189 3.62358 175.572 3.77509 175.89 4.07812C176.212 4.37642 176.373 4.7339 176.373 5.15057C176.373 5.57197 176.212 5.93419 175.89 6.23722C175.572 6.53551 175.189 6.68466 174.739 6.68466ZM188.839 8.09091L185.025 19H181.616L177.802 8.09091H180.998L183.263 15.8963H183.377L185.636 8.09091H188.839ZM195.007 19.2131C193.885 19.2131 192.919 18.9858 192.109 18.5312C191.304 18.072 190.684 17.4233 190.249 16.5852C189.813 15.7424 189.595 14.7457 189.595 13.5952C189.595 12.473 189.813 11.4882 190.249 10.6406C190.684 9.79309 191.297 9.13258 192.088 8.65909C192.884 8.18561 193.816 7.94886 194.886 7.94886C195.606 7.94886 196.276 8.06487 196.896 8.29688C197.521 8.52415 198.066 8.86742 198.53 9.3267C198.999 9.78598 199.363 10.3636 199.624 11.0597C199.884 11.7509 200.014 12.5606 200.014 13.4886V14.3196H190.803V12.4446H197.166C197.166 12.009 197.071 11.6231 196.882 11.2869C196.693 10.9508 196.43 10.688 196.094 10.4986C195.762 10.3045 195.376 10.2074 194.936 10.2074C194.477 10.2074 194.07 10.3139 193.714 10.527C193.364 10.7353 193.089 11.017 192.891 11.3722C192.692 11.7225 192.59 12.1132 192.585 12.544V14.3267C192.585 14.8665 192.685 15.3329 192.884 15.7259C193.087 16.1188 193.374 16.4219 193.743 16.6349C194.112 16.848 194.55 16.9545 195.057 16.9545C195.393 16.9545 195.701 16.9072 195.98 16.8125C196.259 16.7178 196.499 16.5758 196.697 16.3864C196.896 16.197 197.048 15.965 197.152 15.6903L199.95 15.875C199.808 16.5473 199.517 17.1345 199.077 17.6364C198.641 18.1335 198.078 18.5218 197.386 18.8011C196.7 19.0758 195.907 19.2131 195.007 19.2131ZM201.989 19V8.09091H204.922V9.99432H205.036C205.234 9.31723 205.568 8.80587 206.037 8.46023C206.506 8.10985 207.045 7.93466 207.656 7.93466C207.808 7.93466 207.971 7.94413 208.146 7.96307C208.321 7.98201 208.475 8.00805 208.608 8.04119V10.7259C208.466 10.6832 208.269 10.6454 208.018 10.6122C207.768 10.5791 207.538 10.5625 207.33 10.5625C206.884 10.5625 206.487 10.6596 206.136 10.8537C205.791 11.0431 205.516 11.3082 205.312 11.6491C205.114 11.9901 205.014 12.383 205.014 12.8281V19H201.989ZM219.249 11.2017L216.479 11.3722C216.432 11.1354 216.33 10.9223 216.174 10.733C216.017 10.5388 215.811 10.3849 215.556 10.2713C215.305 10.1529 215.004 10.0938 214.654 10.0938C214.185 10.0938 213.79 10.1932 213.468 10.392C213.146 10.5862 212.985 10.8466 212.985 11.1733C212.985 11.4337 213.089 11.6539 213.297 11.8338C213.506 12.0137 213.863 12.1581 214.37 12.267L216.344 12.6648C217.405 12.8826 218.195 13.233 218.716 13.7159C219.237 14.1989 219.498 14.8333 219.498 15.6193C219.498 16.3343 219.287 16.9616 218.865 17.5014C218.449 18.0412 217.876 18.4626 217.147 18.7656C216.422 19.0639 215.587 19.2131 214.64 19.2131C213.195 19.2131 212.045 18.9124 211.188 18.3111C210.336 17.705 209.836 16.8812 209.689 15.8395L212.665 15.6832C212.755 16.1236 212.973 16.4598 213.319 16.6918C213.664 16.919 214.107 17.0327 214.647 17.0327C215.177 17.0327 215.603 16.9309 215.925 16.7273C216.252 16.5189 216.417 16.2514 216.422 15.9247C216.417 15.6501 216.301 15.4252 216.074 15.25C215.847 15.0701 215.497 14.9328 215.023 14.8381L213.134 14.4616C212.069 14.2486 211.275 13.8793 210.755 13.3537C210.239 12.8281 209.98 12.1581 209.98 11.3438C209.98 10.643 210.17 10.0393 210.549 9.53267C210.932 9.02604 211.47 8.63542 212.161 8.3608C212.857 8.08617 213.671 7.94886 214.604 7.94886C215.982 7.94886 217.066 8.24006 217.857 8.82244C218.652 9.40483 219.116 10.1979 219.249 11.2017ZM221.403 19V8.09091H224.428V19H221.403ZM222.923 6.68466C222.473 6.68466 222.087 6.53551 221.765 6.23722C221.448 5.93419 221.289 5.57197 221.289 5.15057C221.289 4.7339 221.448 4.37642 221.765 4.07812C222.087 3.77509 222.473 3.62358 222.923 3.62358C223.372 3.62358 223.756 3.77509 224.073 4.07812C224.395 4.37642 224.556 4.7339 224.556 5.15057C224.556 5.57197 224.395 5.93419 224.073 6.23722C223.756 6.53551 223.372 6.68466 222.923 6.68466ZM232.654 8.09091V10.3636H226.085V8.09091H232.654ZM227.576 5.47727H230.602V15.6477C230.602 15.9271 230.645 16.1449 230.73 16.3011C230.815 16.4527 230.933 16.5592 231.085 16.6207C231.241 16.6823 231.421 16.7131 231.625 16.7131C231.767 16.7131 231.909 16.7012 232.051 16.6776C232.193 16.6491 232.302 16.6278 232.377 16.6136L232.853 18.8651C232.702 18.9124 232.489 18.9669 232.214 19.0284C231.94 19.0947 231.606 19.1349 231.213 19.1491C230.484 19.1776 229.844 19.0805 229.295 18.858C228.751 18.6354 228.327 18.2898 228.024 17.821C227.721 17.3523 227.572 16.7604 227.576 16.0455V5.47727ZM236.493 23.0909C236.11 23.0909 235.75 23.0601 235.414 22.9986C235.082 22.9418 234.808 22.8684 234.59 22.7784L235.272 20.5199C235.627 20.6288 235.946 20.688 236.23 20.6974C236.519 20.7069 236.768 20.6406 236.976 20.4986C237.189 20.3565 237.362 20.1151 237.495 19.7741L237.672 19.3125L233.759 8.09091H236.941L239.199 16.1023H239.313L241.593 8.09091H244.796L240.556 20.179C240.352 20.7661 240.075 21.2775 239.725 21.7131C239.379 22.1534 238.941 22.492 238.411 22.7287C237.881 22.9702 237.241 23.0909 236.493 23.0909Z" fill="white"/>
<g filter="url(#filter0_d_1_7)">
<path d="M1.8679 28.5455L2.86932 30.4524L3.8956 28.5455H5.44744L3.86719 31.2727L5.49006 34H3.94531L2.86932 32.1143L1.81108 34H0.24858L1.8679 31.2727L0.305398 28.5455H1.8679Z" fill="#FF0000"/>
<path d="M9.00124 30.5412V29.2805H13.9054V30.5412H9.00124ZM9.00124 32.8991V31.6385H13.9054V32.8991H9.00124ZM15.4572 34V28.5455H16.97V34H15.4572ZM16.2172 27.8423C15.9922 27.8423 15.7993 27.7678 15.6383 27.6186C15.4797 27.4671 15.4004 27.286 15.4004 27.0753C15.4004 26.867 15.4797 26.6882 15.6383 26.5391C15.7993 26.3875 15.9922 26.3118 16.2172 26.3118C16.4421 26.3118 16.6338 26.3875 16.7924 26.5391C16.9534 26.6882 17.0339 26.867 17.0339 27.0753C17.0339 27.286 16.9534 27.4671 16.7924 27.6186C16.6338 27.7678 16.4421 27.8423 16.2172 27.8423ZM19.6946 30.8466V34H18.1818V28.5455H19.6236V29.5078H19.6875C19.8082 29.1906 20.0107 28.9396 20.2947 28.755C20.5788 28.5679 20.9233 28.4744 21.3281 28.4744C21.7069 28.4744 22.0372 28.5573 22.3189 28.723C22.6006 28.8887 22.8196 29.1255 22.9759 29.4332C23.1321 29.7386 23.2102 30.1032 23.2102 30.527V34H21.6974V30.7969C21.6998 30.4631 21.6146 30.2027 21.4418 30.0156C21.2689 29.8262 21.031 29.7315 20.728 29.7315C20.5244 29.7315 20.3445 29.7753 20.1882 29.8629C20.0343 29.9505 19.9136 30.0784 19.826 30.2464C19.7408 30.4122 19.697 30.6122 19.6946 30.8466ZM26.4125 34.0888C25.9982 34.0888 25.6229 33.9822 25.2868 33.7692C24.9529 33.5537 24.6878 33.2377 24.4913 32.821C24.2972 32.402 24.2001 31.8883 24.2001 31.2798C24.2001 30.6548 24.3007 30.1352 24.502 29.7209C24.7032 29.3042 24.9707 28.9929 25.3045 28.7869C25.6407 28.5786 26.0088 28.4744 26.4089 28.4744C26.7143 28.4744 26.9688 28.5265 27.1724 28.6307C27.3784 28.7325 27.5441 28.8603 27.6696 29.0142C27.7974 29.1657 27.8945 29.3149 27.9608 29.4616H28.0069V26.7273H29.5162V34H28.0247V33.1264H27.9608C27.8897 33.2779 27.7891 33.4283 27.6589 33.5774C27.5311 33.7242 27.3642 33.8461 27.1582 33.9432C26.9546 34.0402 26.706 34.0888 26.4125 34.0888ZM26.8919 32.8849C27.1357 32.8849 27.3417 32.8187 27.5098 32.6861C27.6802 32.5511 27.8104 32.3629 27.9004 32.1214C27.9927 31.88 28.0389 31.5971 28.0389 31.2727C28.0389 30.9484 27.9939 30.6667 27.9039 30.4276C27.814 30.1884 27.6838 30.0038 27.5133 29.8736C27.3429 29.7434 27.1357 29.6783 26.8919 29.6783C26.6433 29.6783 26.4338 29.7457 26.2633 29.8807C26.0929 30.0156 25.9638 30.2027 25.8762 30.4418C25.7886 30.6809 25.7449 30.9579 25.7449 31.2727C25.7449 31.59 25.7886 31.8705 25.8762 32.1143C25.9662 32.3558 26.0952 32.5452 26.2633 32.6825C26.4338 32.8175 26.6433 32.8849 26.8919 32.8849ZM33.2457 34.1065C32.6847 34.1065 32.2017 33.9929 31.7969 33.7656C31.3944 33.536 31.0843 33.2116 30.8665 32.7926C30.6487 32.3712 30.5398 31.8729 30.5398 31.2976C30.5398 30.7365 30.6487 30.2441 30.8665 29.8203C31.0843 29.3965 31.3909 29.0663 31.7862 28.8295C32.1839 28.5928 32.6503 28.4744 33.1854 28.4744C33.5452 28.4744 33.8802 28.5324 34.1903 28.6484C34.5028 28.7621 34.7751 28.9337 35.0071 29.1634C35.2415 29.393 35.4238 29.6818 35.554 30.0298C35.6842 30.3755 35.7493 30.7803 35.7493 31.2443V31.6598H31.1435V30.7223H34.3253C34.3253 30.5045 34.2779 30.3116 34.1832 30.1435C34.0885 29.9754 33.9571 29.844 33.7891 29.7493C33.6233 29.6522 33.4304 29.6037 33.2102 29.6037C32.9806 29.6037 32.777 29.657 32.5994 29.7635C32.4242 29.8677 32.2869 30.0085 32.1875 30.1861C32.0881 30.3613 32.0372 30.5566 32.0348 30.772V31.6634C32.0348 31.9332 32.0845 32.1664 32.1839 32.3629C32.2857 32.5594 32.429 32.7109 32.6136 32.8175C32.7983 32.924 33.0173 32.9773 33.2706 32.9773C33.4387 32.9773 33.5926 32.9536 33.7322 32.9062C33.8719 32.8589 33.9915 32.7879 34.0909 32.6932C34.1903 32.5985 34.2661 32.4825 34.3182 32.3452L35.7173 32.4375C35.6463 32.7737 35.5007 33.0672 35.2805 33.3182C35.0627 33.5668 34.781 33.7609 34.4354 33.9006C34.0921 34.0379 33.6955 34.1065 33.2457 34.1065ZM36.7365 36.0455V28.5455H38.228V29.4616H38.2955C38.3617 29.3149 38.4576 29.1657 38.5831 29.0142C38.7109 28.8603 38.8767 28.7325 39.0803 28.6307C39.2862 28.5265 39.5419 28.4744 39.8473 28.4744C40.245 28.4744 40.612 28.5786 40.9482 28.7869C41.2843 28.9929 41.553 29.3042 41.7543 29.7209C41.9555 30.1352 42.0561 30.6548 42.0561 31.2798C42.0561 31.8883 41.9579 32.402 41.7614 32.821C41.5672 33.2377 41.3021 33.5537 40.9659 33.7692C40.6321 33.9822 40.258 34.0888 39.8438 34.0888C39.5502 34.0888 39.3004 34.0402 39.0945 33.9432C38.8909 33.8461 38.724 33.7242 38.5938 33.5774C38.4635 33.4283 38.3641 33.2779 38.2955 33.1264H38.2493V36.0455H36.7365ZM38.2173 31.2727C38.2173 31.5971 38.2623 31.88 38.3523 32.1214C38.4422 32.3629 38.5724 32.5511 38.7429 32.6861C38.9134 32.8187 39.1205 32.8849 39.3643 32.8849C39.6106 32.8849 39.8189 32.8175 39.9893 32.6825C40.1598 32.5452 40.2888 32.3558 40.3764 32.1143C40.4664 31.8705 40.5114 31.59 40.5114 31.2727C40.5114 30.9579 40.4676 30.6809 40.38 30.4418C40.2924 30.2027 40.1634 30.0156 39.9929 29.8807C39.8224 29.7457 39.6129 29.6783 39.3643 29.6783C39.1181 29.6783 38.9098 29.7434 38.7393 29.8736C38.5713 30.0038 38.4422 30.1884 38.3523 30.4276C38.2623 30.6667 38.2173 30.9484 38.2173 31.2727ZM45.5504 34.1065C44.9893 34.1065 44.5064 33.9929 44.1016 33.7656C43.6991 33.536 43.389 33.2116 43.1712 32.7926C42.9534 32.3712 42.8445 31.8729 42.8445 31.2976C42.8445 30.7365 42.9534 30.2441 43.1712 29.8203C43.389 29.3965 43.6955 29.0663 44.0909 28.8295C44.4886 28.5928 44.955 28.4744 45.4901 28.4744C45.8499 28.4744 46.1849 28.5324 46.495 28.6484C46.8075 28.7621 47.0798 28.9337 47.3118 29.1634C47.5462 29.393 47.7285 29.6818 47.8587 30.0298C47.9889 30.3755 48.054 30.7803 48.054 31.2443V31.6598H43.4482V30.7223H46.63C46.63 30.5045 46.5826 30.3116 46.4879 30.1435C46.3932 29.9754 46.2618 29.844 46.0938 29.7493C45.928 29.6522 45.7351 29.6037 45.5149 29.6037C45.2853 29.6037 45.0817 29.657 44.9041 29.7635C44.7289 29.8677 44.5916 30.0085 44.4922 30.1861C44.3928 30.3613 44.3419 30.5566 44.3395 30.772V31.6634C44.3395 31.9332 44.3892 32.1664 44.4886 32.3629C44.5904 32.5594 44.7337 32.7109 44.9183 32.8175C45.103 32.924 45.322 32.9773 45.5753 32.9773C45.7434 32.9773 45.8973 32.9536 46.0369 32.9062C46.1766 32.8589 46.2962 32.7879 46.3956 32.6932C46.495 32.5985 46.5708 32.4825 46.6229 32.3452L48.022 32.4375C47.951 32.7737 47.8054 33.0672 47.5852 33.3182C47.3674 33.5668 47.0857 33.7609 46.7401 33.9006C46.3968 34.0379 46.0002 34.1065 45.5504 34.1065ZM50.554 30.8466V34H49.0412V28.5455H50.483V29.5078H50.5469C50.6676 29.1906 50.87 28.9396 51.1541 28.755C51.4382 28.5679 51.7827 28.4744 52.1875 28.4744C52.5663 28.4744 52.8965 28.5573 53.1783 28.723C53.46 28.8887 53.679 29.1255 53.8352 29.4332C53.9915 29.7386 54.0696 30.1032 54.0696 30.527V34H52.5568V30.7969C52.5592 30.4631 52.474 30.2027 52.3011 30.0156C52.1283 29.8262 51.8904 29.7315 51.5874 29.7315C51.3838 29.7315 51.2038 29.7753 51.0476 29.8629C50.8937 29.9505 50.773 30.0784 50.6854 30.2464C50.6001 30.4122 50.5563 30.6122 50.554 30.8466ZM57.2718 34.0888C56.8575 34.0888 56.4823 33.9822 56.1461 33.7692C55.8123 33.5537 55.5472 33.2377 55.3507 32.821C55.1565 32.402 55.0595 31.8883 55.0595 31.2798C55.0595 30.6548 55.1601 30.1352 55.3613 29.7209C55.5626 29.3042 55.8301 28.9929 56.1639 28.7869C56.5001 28.5786 56.8682 28.4744 57.2683 28.4744C57.5737 28.4744 57.8282 28.5265 58.0318 28.6307C58.2377 28.7325 58.4035 28.8603 58.5289 29.0142C58.6568 29.1657 58.7538 29.3149 58.8201 29.4616H58.8663V26.7273H60.3755V34H58.8841V33.1264H58.8201C58.7491 33.2779 58.6485 33.4283 58.5183 33.5774C58.3904 33.7242 58.2235 33.8461 58.0176 33.9432C57.814 34.0402 57.5654 34.0888 57.2718 34.0888ZM57.7512 32.8849C57.9951 32.8849 58.2011 32.8187 58.3691 32.6861C58.5396 32.5511 58.6698 32.3629 58.7598 32.1214C58.8521 31.88 58.8983 31.5971 58.8983 31.2727C58.8983 30.9484 58.8533 30.6667 58.7633 30.4276C58.6734 30.1884 58.5431 30.0038 58.3727 29.8736C58.2022 29.7434 57.9951 29.6783 57.7512 29.6783C57.5027 29.6783 57.2931 29.7457 57.1227 29.8807C56.9522 30.0156 56.8232 30.2027 56.7356 30.4418C56.648 30.6809 56.6042 30.9579 56.6042 31.2727C56.6042 31.59 56.648 31.8705 56.7356 32.1143C56.8256 32.3558 56.9546 32.5452 57.1227 32.6825C57.2931 32.8175 57.5027 32.8849 57.7512 32.8849ZM64.1051 34.1065C63.544 34.1065 63.0611 33.9929 62.6562 33.7656C62.2538 33.536 61.9437 33.2116 61.7259 32.7926C61.508 32.3712 61.3991 31.8729 61.3991 31.2976C61.3991 30.7365 61.508 30.2441 61.7259 29.8203C61.9437 29.3965 62.2502 29.0663 62.6456 28.8295C63.0433 28.5928 63.5097 28.4744 64.0447 28.4744C64.4046 28.4744 64.7396 28.5324 65.0497 28.6484C65.3622 28.7621 65.6345 28.9337 65.8665 29.1634C66.1009 29.393 66.2831 29.6818 66.4134 30.0298C66.5436 30.3755 66.6087 30.7803 66.6087 31.2443V31.6598H62.0028V30.7223H65.1847C65.1847 30.5045 65.1373 30.3116 65.0426 30.1435C64.9479 29.9754 64.8165 29.844 64.6484 29.7493C64.4827 29.6522 64.2898 29.6037 64.0696 29.6037C63.84 29.6037 63.6364 29.657 63.4588 29.7635C63.2836 29.8677 63.1463 30.0085 63.0469 30.1861C62.9474 30.3613 62.8965 30.5566 62.8942 30.772V31.6634C62.8942 31.9332 62.9439 32.1664 63.0433 32.3629C63.1451 32.5594 63.2884 32.7109 63.473 32.8175C63.6577 32.924 63.8767 32.9773 64.13 32.9773C64.2981 32.9773 64.4519 32.9536 64.5916 32.9062C64.7313 32.8589 64.8509 32.7879 64.9503 32.6932C65.0497 32.5985 65.1255 32.4825 65.1776 32.3452L66.5767 32.4375C66.5057 32.7737 66.3601 33.0672 66.1399 33.3182C65.9221 33.5668 65.6404 33.7609 65.2947 33.9006C64.9515 34.0379 64.5549 34.1065 64.1051 34.1065ZM69.1087 30.8466V34H67.5959V28.5455H69.0376V29.5078H69.1016C69.2223 29.1906 69.4247 28.9396 69.7088 28.755C69.9929 28.5679 70.3374 28.4744 70.7422 28.4744C71.121 28.4744 71.4512 28.5573 71.733 28.723C72.0147 28.8887 72.2337 29.1255 72.3899 29.4332C72.5462 29.7386 72.6243 30.1032 72.6243 30.527V34H71.1115V30.7969C71.1139 30.4631 71.0286 30.2027 70.8558 30.0156C70.683 29.8262 70.4451 29.7315 70.142 29.7315C69.9384 29.7315 69.7585 29.7753 69.6023 29.8629C69.4484 29.9505 69.3277 30.0784 69.2401 30.2464C69.1548 30.4122 69.111 30.6122 69.1087 30.8466ZM76.7179 28.5455V29.6818H73.4331V28.5455H76.7179ZM74.1788 27.2386H75.6916V32.3239C75.6916 32.4635 75.7129 32.5724 75.7555 32.6506C75.7981 32.7263 75.8573 32.7796 75.9331 32.8104C76.0112 32.8411 76.1011 32.8565 76.2029 32.8565C76.274 32.8565 76.345 32.8506 76.416 32.8388C76.487 32.8246 76.5415 32.8139 76.5794 32.8068L76.8173 33.9325C76.7415 33.9562 76.635 33.9834 76.4977 34.0142C76.3604 34.0473 76.1935 34.0675 75.997 34.0746C75.6324 34.0888 75.3128 34.0402 75.0382 33.929C74.7659 33.8177 74.554 33.6449 74.4025 33.4105C74.251 33.1761 74.1764 32.8802 74.1788 32.5227V27.2386ZM79.3333 26.7273V34H77.8205V26.7273H79.3333ZM81.479 36.0455C81.2873 36.0455 81.1074 36.0301 80.9393 35.9993C80.7736 35.9709 80.6362 35.9342 80.5273 35.8892L80.8683 34.7599C81.0458 34.8144 81.2056 34.844 81.3477 34.8487C81.4921 34.8535 81.6164 34.8203 81.7205 34.7493C81.8271 34.6783 81.9135 34.5575 81.9798 34.3871L82.0685 34.1562L80.1119 28.5455H81.7028L82.832 32.5511H82.8888L84.0288 28.5455H85.6303L83.5103 34.5895C83.4085 34.883 83.27 35.1387 83.0948 35.3565C82.922 35.5767 82.703 35.746 82.4379 35.8643C82.1727 35.9851 81.8531 36.0455 81.479 36.0455ZM3.06818 46.1065C2.51657 46.1065 2.03954 45.9893 1.63707 45.755C1.23698 45.5182 0.92803 45.1892 0.710227 44.7678C0.492424 44.344 0.383523 43.8527 0.383523 43.294C0.383523 42.7306 0.492424 42.2382 0.710227 41.8168C0.92803 41.393 1.23698 41.0639 1.63707 40.8295C2.03954 40.5928 2.51657 40.4744 3.06818 40.4744C3.61979 40.4744 4.09564 40.5928 4.49574 40.8295C4.8982 41.0639 5.20833 41.393 5.42614 41.8168C5.64394 42.2382 5.75284 42.7306 5.75284 43.294C5.75284 43.8527 5.64394 44.344 5.42614 44.7678C5.20833 45.1892 4.8982 45.5182 4.49574 45.755C4.09564 45.9893 3.61979 46.1065 3.06818 46.1065ZM3.07528 44.9347C3.32623 44.9347 3.53575 44.8636 3.70384 44.7216C3.87192 44.5772 3.99858 44.3807 4.08381 44.1321C4.1714 43.8835 4.2152 43.6006 4.2152 43.2834C4.2152 42.9661 4.1714 42.6832 4.08381 42.4347C3.99858 42.1861 3.87192 41.9896 3.70384 41.8452C3.53575 41.7008 3.32623 41.6286 3.07528 41.6286C2.82197 41.6286 2.6089 41.7008 2.43608 41.8452C2.26563 41.9896 2.1366 42.1861 2.04901 42.4347C1.96378 42.6832 1.92116 42.9661 1.92116 43.2834C1.92116 43.6006 1.96378 43.8835 2.04901 44.1321C2.1366 44.3807 2.26563 44.5772 2.43608 44.7216C2.6089 44.8636 2.82197 44.9347 3.07528 44.9347ZM6.73651 46V40.5455H8.20312V41.4972H8.25994C8.35938 41.1586 8.52628 40.9029 8.76065 40.7301C8.99503 40.5549 9.26491 40.4673 9.57031 40.4673C9.64607 40.4673 9.72775 40.4721 9.81534 40.4815C9.90294 40.491 9.97988 40.504 10.0462 40.5206V41.8629C9.97514 41.8416 9.87689 41.8227 9.75142 41.8061C9.62595 41.7895 9.51113 41.7812 9.40696 41.7812C9.18442 41.7812 8.98556 41.8298 8.81037 41.9268C8.63755 42.0215 8.50024 42.1541 8.39844 42.3246C8.29901 42.495 8.24929 42.6915 8.24929 42.9141V46H6.73651ZM13.0318 48.1591C12.5417 48.1591 12.1215 48.0916 11.7711 47.9567C11.4231 47.8241 11.1461 47.643 10.9402 47.4134C10.7342 47.1837 10.6004 46.9257 10.5389 46.6392L11.938 46.451C11.9806 46.5599 12.0481 46.6617 12.1404 46.7564C12.2328 46.8511 12.3547 46.9268 12.5062 46.9837C12.6601 47.0429 12.8471 47.0724 13.0673 47.0724C13.3964 47.0724 13.6674 46.992 13.8805 46.831C14.0959 46.6723 14.2037 46.406 14.2037 46.032V45.0341H14.1397C14.0734 45.1856 13.974 45.3288 13.8414 45.4638C13.7089 45.5987 13.5384 45.7088 13.3301 45.794C13.1217 45.8793 12.8732 45.9219 12.5843 45.9219C12.1748 45.9219 11.8019 45.8272 11.4657 45.6378C11.1319 45.446 10.8656 45.1536 10.6667 44.7607C10.4702 44.3653 10.372 43.8658 10.372 43.2621C10.372 42.6442 10.4726 42.1281 10.6738 41.7138C10.8751 41.2995 11.1426 40.9893 11.4764 40.7834C11.8126 40.5774 12.1807 40.4744 12.5808 40.4744C12.8862 40.4744 13.1419 40.5265 13.3478 40.6307C13.5538 40.7325 13.7195 40.8603 13.845 41.0142C13.9728 41.1657 14.0711 41.3149 14.1397 41.4616H14.1966V40.5455H15.6987V46.0533C15.6987 46.5173 15.585 46.9055 15.3578 47.218C15.1305 47.5305 14.8156 47.7649 14.4132 47.9212C14.0131 48.0798 13.5526 48.1591 13.0318 48.1591ZM13.0637 44.7855C13.3076 44.7855 13.5136 44.7251 13.6816 44.6044C13.8521 44.4813 13.9823 44.3061 14.0723 44.0788C14.1646 43.8492 14.2108 43.5746 14.2108 43.255C14.2108 42.9354 14.1658 42.6584 14.0758 42.424C13.9859 42.1873 13.8556 42.0038 13.6852 41.8736C13.5147 41.7434 13.3076 41.6783 13.0637 41.6783C12.8152 41.6783 12.6056 41.7457 12.4352 41.8807C12.2647 42.0133 12.1357 42.1979 12.0481 42.4347C11.9605 42.6714 11.9167 42.9448 11.9167 43.255C11.9167 43.5698 11.9605 43.8421 12.0481 44.0717C12.1381 44.299 12.2671 44.4754 12.4352 44.6009C12.6056 44.724 12.8152 44.7855 13.0637 44.7855ZM18.4579 46.103C18.1099 46.103 17.7998 46.0426 17.5275 45.9219C17.2553 45.7988 17.0398 45.6177 16.8812 45.3786C16.725 45.1371 16.6468 44.8364 16.6468 44.4766C16.6468 44.1735 16.7025 43.919 16.8137 43.7131C16.925 43.5071 17.0765 43.3414 17.2683 43.2159C17.46 43.0904 17.6779 42.9957 17.9217 42.9318C18.1679 42.8679 18.426 42.8229 18.6958 42.7969C19.0131 42.7637 19.2688 42.733 19.4629 42.7045C19.657 42.6738 19.7979 42.6288 19.8855 42.5696C19.9731 42.5104 20.0169 42.4228 20.0169 42.3068V42.2855C20.0169 42.0606 19.9458 41.8866 19.8038 41.7635C19.6641 41.6404 19.4653 41.5788 19.2072 41.5788C18.935 41.5788 18.7183 41.6392 18.5574 41.7599C18.3964 41.8783 18.2898 42.0275 18.2377 42.2074L16.8386 42.0938C16.9096 41.7623 17.0493 41.4759 17.2576 41.2344C17.466 40.9905 17.7347 40.8035 18.0637 40.6733C18.3952 40.5407 18.7787 40.4744 19.2143 40.4744C19.5173 40.4744 19.8074 40.5099 20.0843 40.581C20.3637 40.652 20.6111 40.7621 20.8265 40.9112C21.0443 41.0604 21.216 41.2521 21.3414 41.4865C21.4669 41.7185 21.5297 41.9967 21.5297 42.321V46H20.095V45.2436H20.0524C19.9648 45.4141 19.8476 45.5644 19.7008 45.6946C19.554 45.8224 19.3777 45.9231 19.1717 45.9964C18.9657 46.0675 18.7278 46.103 18.4579 46.103ZM18.8912 45.0589C19.1137 45.0589 19.3102 45.0152 19.4806 44.9276C19.6511 44.8376 19.7849 44.7169 19.8819 44.5653C19.979 44.4138 20.0275 44.2422 20.0275 44.0504V43.4716C19.9802 43.5024 19.9151 43.5308 19.8322 43.5568C19.7517 43.5805 19.6606 43.603 19.5588 43.6243C19.457 43.6432 19.3552 43.661 19.2534 43.6776C19.1516 43.6918 19.0592 43.7048 18.9764 43.7166C18.7988 43.7427 18.6438 43.7841 18.5112 43.8409C18.3786 43.8977 18.2756 43.9747 18.2022 44.0717C18.1288 44.1664 18.0922 44.2848 18.0922 44.4268C18.0922 44.6328 18.1667 44.7902 18.3159 44.8991C18.4674 45.0057 18.6592 45.0589 18.8912 45.0589ZM24.2161 42.8466V46H22.7033V40.5455H24.1451V41.5078H24.209C24.3297 41.1906 24.5321 40.9396 24.8162 40.755C25.1003 40.5679 25.4448 40.4744 25.8496 40.4744C26.2284 40.4744 26.5587 40.5573 26.8404 40.723C27.1221 40.8887 27.3411 41.1255 27.4973 41.4332C27.6536 41.7386 27.7317 42.1032 27.7317 42.527V46H26.2189V42.7969C26.2213 42.4631 26.1361 42.2027 25.9632 42.0156C25.7904 41.8262 25.5525 41.7315 25.2495 41.7315C25.0459 41.7315 24.8659 41.7753 24.7097 41.8629C24.5558 41.9505 24.4351 42.0784 24.3475 42.2464C24.2623 42.4122 24.2185 42.6122 24.2161 42.8466ZM28.924 46V40.5455H30.4368V46H28.924ZM29.6839 39.8423C29.459 39.8423 29.2661 39.7678 29.1051 39.6186C28.9465 39.4671 28.8672 39.286 28.8672 39.0753C28.8672 38.867 28.9465 38.6882 29.1051 38.5391C29.2661 38.3875 29.459 38.3118 29.6839 38.3118C29.9089 38.3118 30.1006 38.3875 30.2592 38.5391C30.4202 38.6882 30.5007 38.867 30.5007 39.0753C30.5007 39.286 30.4202 39.4671 30.2592 39.6186C30.1006 39.7678 29.9089 39.8423 29.6839 39.8423ZM31.6202 46V45.098L34.2907 41.7919V41.7528H31.7125V40.5455H36.1124V41.5291L33.6053 44.7536V44.7926H36.2047V46H31.6202ZM39.6911 46.1065C39.13 46.1065 38.647 45.9929 38.2422 45.7656C37.8397 45.536 37.5296 45.2116 37.3118 44.7926C37.094 44.3712 36.9851 43.8729 36.9851 43.2976C36.9851 42.7365 37.094 42.2441 37.3118 41.8203C37.5296 41.3965 37.8362 41.0663 38.2315 40.8295C38.6293 40.5928 39.0956 40.4744 39.6307 40.4744C39.9905 40.4744 40.3255 40.5324 40.6357 40.6484C40.9482 40.7621 41.2204 40.9337 41.4524 41.1634C41.6868 41.393 41.8691 41.6818 41.9993 42.0298C42.1295 42.3755 42.1946 42.7803 42.1946 43.2443V43.6598H37.5888V42.7223H40.7706C40.7706 42.5045 40.7232 42.3116 40.6286 42.1435C40.5339 41.9754 40.4025 41.844 40.2344 41.7493C40.0687 41.6522 39.8757 41.6037 39.6555 41.6037C39.4259 41.6037 39.2223 41.657 39.0447 41.7635C38.8696 41.8677 38.7322 42.0085 38.6328 42.1861C38.5334 42.3613 38.4825 42.5566 38.4801 42.772V43.6634C38.4801 43.9332 38.5298 44.1664 38.6293 44.3629C38.7311 44.5594 38.8743 44.7109 39.0589 44.8175C39.2436 44.924 39.4626 44.9773 39.7159 44.9773C39.884 44.9773 40.0379 44.9536 40.1776 44.9062C40.3172 44.8589 40.4368 44.7879 40.5362 44.6932C40.6357 44.5985 40.7114 44.4825 40.7635 44.3452L42.1626 44.4375C42.0916 44.7737 41.946 45.0672 41.7259 45.3182C41.508 45.5668 41.2263 45.7609 40.8807 45.9006C40.5374 46.0379 40.1409 46.1065 39.6911 46.1065ZM45.1918 46.0888C44.7775 46.0888 44.4022 45.9822 44.0661 45.7692C43.7322 45.5537 43.4671 45.2377 43.2706 44.821C43.0765 44.402 42.9794 43.8883 42.9794 43.2798C42.9794 42.6548 43.08 42.1352 43.2812 41.7209C43.4825 41.3042 43.75 40.9929 44.0838 40.7869C44.42 40.5786 44.7881 40.4744 45.1882 40.4744C45.4936 40.4744 45.7481 40.5265 45.9517 40.6307C46.1577 40.7325 46.3234 40.8603 46.4489 41.0142C46.5767 41.1657 46.6738 41.3149 46.7401 41.4616H46.7862V38.7273H48.2955V46H46.804V45.1264H46.7401C46.669 45.2779 46.5684 45.4283 46.4382 45.5774C46.3104 45.7242 46.1435 45.8461 45.9375 45.9432C45.7339 46.0402 45.4853 46.0888 45.1918 46.0888ZM45.6712 44.8849C45.915 44.8849 46.121 44.8187 46.2891 44.6861C46.4595 44.5511 46.5897 44.3629 46.6797 44.1214C46.772 43.88 46.8182 43.5971 46.8182 43.2727C46.8182 42.9484 46.7732 42.6667 46.6832 42.4276C46.5933 42.1884 46.4631 42.0038 46.2926 41.8736C46.1222 41.7434 45.915 41.6783 45.6712 41.6783C45.4226 41.6783 45.2131 41.7457 45.0426 41.8807C44.8722 42.0156 44.7431 42.2027 44.6555 42.4418C44.5679 42.6809 44.5241 42.9579 44.5241 43.2727C44.5241 43.59 44.5679 43.8705 44.6555 44.1143C44.7455 44.3558 44.8745 44.5452 45.0426 44.6825C45.2131 44.8175 45.4226 44.8849 45.6712 44.8849ZM51.6051 39.995V38.7273H57.5781V39.995H55.3516V46H53.8317V39.995H51.6051ZM58.5618 46V38.7273H63.4624V39.995H60.0994V41.728H63.2102V42.9957H60.0994V44.7322H63.4766V46H58.5618ZM67.263 46H64.6848V38.7273H67.2843C68.0158 38.7273 68.6455 38.8729 69.1735 39.1641C69.7014 39.4529 70.1074 39.8684 70.3915 40.4105C70.678 40.9527 70.8212 41.6013 70.8212 42.3565C70.8212 43.1141 70.678 43.7652 70.3915 44.3097C70.1074 44.8542 69.699 45.272 69.1664 45.5632C68.6361 45.8544 68.0016 46 67.263 46ZM66.2225 44.6825H67.199C67.6536 44.6825 68.0359 44.602 68.3461 44.4411C68.6586 44.2777 68.8929 44.0256 69.0492 43.6847C69.2078 43.3414 69.2871 42.8987 69.2871 42.3565C69.2871 41.8191 69.2078 41.38 69.0492 41.0391C68.8929 40.6982 68.6597 40.4472 68.3496 40.2862C68.0395 40.1252 67.6571 40.0447 67.2026 40.0447H66.2225V44.6825ZM76.7321 46.1065C76.171 46.1065 75.688 45.9929 75.2832 45.7656C74.8807 45.536 74.5706 45.2116 74.3528 44.7926C74.135 44.3712 74.0261 43.8729 74.0261 43.2976C74.0261 42.7365 74.135 42.2441 74.3528 41.8203C74.5706 41.3965 74.8772 41.0663 75.2725 40.8295C75.6703 40.5928 76.1367 40.4744 76.6717 40.4744C77.0315 40.4744 77.3665 40.5324 77.6767 40.6484C77.9892 40.7621 78.2614 40.9337 78.4934 41.1634C78.7278 41.393 78.9101 41.6818 79.0403 42.0298C79.1705 42.3755 79.2356 42.7803 79.2356 43.2443V43.6598H74.6298V42.7223H77.8116C77.8116 42.5045 77.7643 42.3116 77.6696 42.1435C77.5749 41.9754 77.4435 41.844 77.2754 41.7493C77.1097 41.6522 76.9167 41.6037 76.6966 41.6037C76.4669 41.6037 76.2633 41.657 76.0858 41.7635C75.9106 41.8677 75.7733 42.0085 75.6738 42.1861C75.5744 42.3613 75.5235 42.5566 75.5211 42.772V43.6634C75.5211 43.9332 75.5708 44.1664 75.6703 44.3629C75.7721 44.5594 75.9153 44.7109 76.1 44.8175C76.2846 44.924 76.5036 44.9773 76.7569 44.9773C76.925 44.9773 77.0789 44.9536 77.2186 44.9062C77.3583 44.8589 77.4778 44.7879 77.5772 44.6932C77.6767 44.5985 77.7524 44.4825 77.8045 44.3452L79.2037 44.4375C79.1326 44.7737 78.987 45.0672 78.7669 45.3182C78.5491 45.5668 78.2673 45.7609 77.9217 45.9006C77.5784 46.0379 77.1819 46.1065 76.7321 46.1065ZM85.1616 40.5455L83.2546 46H81.5501L79.6431 40.5455H81.2411L82.3739 44.4482H82.4308L83.56 40.5455H85.1616ZM88.2457 46.1065C87.6847 46.1065 87.2017 45.9929 86.7969 45.7656C86.3944 45.536 86.0843 45.2116 85.8665 44.7926C85.6487 44.3712 85.5398 43.8729 85.5398 43.2976C85.5398 42.7365 85.6487 42.2441 85.8665 41.8203C86.0843 41.3965 86.3909 41.0663 86.7862 40.8295C87.1839 40.5928 87.6503 40.4744 88.1854 40.4744C88.5452 40.4744 88.8802 40.5324 89.1903 40.6484C89.5028 40.7621 89.7751 40.9337 90.0071 41.1634C90.2415 41.393 90.4238 41.6818 90.554 42.0298C90.6842 42.3755 90.7493 42.7803 90.7493 43.2443V43.6598H86.1435V42.7223H89.3253C89.3253 42.5045 89.2779 42.3116 89.1832 42.1435C89.0885 41.9754 88.9571 41.844 88.7891 41.7493C88.6233 41.6522 88.4304 41.6037 88.2102 41.6037C87.9806 41.6037 87.777 41.657 87.5994 41.7635C87.4242 41.8677 87.2869 42.0085 87.1875 42.1861C87.0881 42.3613 87.0372 42.5566 87.0348 42.772V43.6634C87.0348 43.9332 87.0845 44.1664 87.1839 44.3629C87.2857 44.5594 87.429 44.7109 87.6136 44.8175C87.7983 44.924 88.0173 44.9773 88.2706 44.9773C88.4387 44.9773 88.5926 44.9536 88.7322 44.9062C88.8719 44.8589 88.9915 44.7879 89.0909 44.6932C89.1903 44.5985 89.2661 44.4825 89.3182 44.3452L90.7173 44.4375C90.6463 44.7737 90.5007 45.0672 90.2805 45.3182C90.0627 45.5668 89.781 45.7609 89.4354 45.9006C89.0921 46.0379 88.6955 46.1065 88.2457 46.1065ZM93.2493 42.8466V46H91.7365V40.5455H93.1783V41.5078H93.2422C93.3629 41.1906 93.5653 40.9396 93.8494 40.755C94.1335 40.5679 94.478 40.4744 94.8828 40.4744C95.2616 40.4744 95.5919 40.5573 95.8736 40.723C96.1553 40.8887 96.3743 41.1255 96.5305 41.4332C96.6868 41.7386 96.7649 42.1032 96.7649 42.527V46H95.2521V42.7969C95.2545 42.4631 95.1693 42.2027 94.9964 42.0156C94.8236 41.8262 94.5857 41.7315 94.2827 41.7315C94.0791 41.7315 93.8991 41.7753 93.7429 41.8629C93.589 41.9505 93.4683 42.0784 93.3807 42.2464C93.2955 42.4122 93.2517 42.6122 93.2493 42.8466ZM100.858 40.5455V41.6818H97.5737V40.5455H100.858ZM98.3194 39.2386H99.8322V44.3239C99.8322 44.4635 99.8535 44.5724 99.8961 44.6506C99.9387 44.7263 99.9979 44.7796 100.074 44.8104C100.152 44.8411 100.242 44.8565 100.344 44.8565C100.415 44.8565 100.486 44.8506 100.557 44.8388C100.628 44.8246 100.682 44.8139 100.72 44.8068L100.958 45.9325C100.882 45.9562 100.776 45.9834 100.638 46.0142C100.501 46.0473 100.334 46.0675 100.138 46.0746C99.773 46.0888 99.4534 46.0402 99.1788 45.929C98.9065 45.8177 98.6947 45.6449 98.5431 45.4105C98.3916 45.1761 98.3171 44.8802 98.3194 44.5227V39.2386Z" fill="white"/>
</g>
<defs>
<filter id="filter0_d_1_7" x="-3.75142" y="26.3118" width="108.709" height="29.8473" filterUnits="userSpaceOnUse" color-interpolation-filters="sRGB">
<feFlood flood-opacity="0" result="BackgroundImageFix"/>
<feColorMatrix in="SourceAlpha" type="matrix" values="0 0 0 0 0 0 0 0 0 0 0 0 0 0 0 0 0 0 127 0" result="hardAlpha"/>
<feOffset dy="4"/>
<feGaussianBlur stdDeviation="2"/>
<feComposite in2="hardAlpha" operator="out"/>
<feColorMatrix type="matrix" values="0 0 0 0 0 0 0 0 0 0 0 0 0 0 0 0 0 0 0.25 0"/>
<feBlend mode="normal" in2="BackgroundImageFix" result="effect1_dropShadow_1_7"/>
<feBlend mode="normal" in="SourceGraphic" in2="effect1_dropShadow_1_7" result="shape"/>
</filter>
</defs>
</svg>
