<svg width="452" height="484" viewBox="0 0 452 484" fill="none" xmlns="http://www.w3.org/2000/svg">
<path d="M229.457 248.304C246.652 239.334 259.048 229.211 257.145 225.694C255.242 222.176 239.76 226.597 222.565 235.567C205.37 244.537 192.973 254.66 194.876 258.177C196.78 261.695 212.262 257.274 229.457 248.304Z" stroke="url(#paint0_linear_2_11348)" stroke-width="2" stroke-miterlimit="10"/>
<path d="M230.065 248.57C249.699 237.349 263.851 225.276 261.674 221.604C259.497 217.932 241.816 224.052 222.182 235.273C202.548 246.494 188.397 258.568 190.574 262.24C192.751 265.912 210.432 259.792 230.065 248.57Z" stroke="url(#paint1_linear_2_11348)" stroke-width="2" stroke-miterlimit="10"/>
<path d="M230.514 248.9C252.748 235.106 268.781 220.829 266.325 217.013C263.869 213.197 243.854 221.286 221.621 235.081C199.387 248.875 183.354 263.151 185.81 266.967C188.266 270.783 208.281 262.694 230.514 248.9Z" stroke="url(#paint2_linear_2_11348)" stroke-width="2" stroke-miterlimit="10"/>
<path d="M230.93 249.259C255.96 232.516 273.999 215.697 271.22 211.692C268.442 207.687 245.898 218.014 220.868 234.757C195.837 251.5 177.798 268.32 180.577 272.324C183.356 276.329 205.899 266.002 230.93 249.259Z" stroke="url(#paint3_linear_2_11348)" stroke-width="2" stroke-miterlimit="10"/>
<path d="M231.691 249.583C259.64 229.53 279.742 209.842 276.591 205.608C273.439 201.374 248.228 214.197 220.279 234.25C192.331 254.302 172.229 273.991 175.38 278.225C178.531 282.459 203.742 269.635 231.691 249.583Z" stroke="url(#paint4_linear_2_11348)" stroke-width="2" stroke-miterlimit="10"/>
<path d="M232.608 250.068C263.626 226.293 285.87 203.371 282.292 198.87C278.714 194.37 250.668 209.996 219.65 233.771C188.632 257.547 166.387 280.469 169.966 284.969C173.544 289.469 201.59 273.844 232.608 250.068Z" stroke="url(#paint5_linear_2_11348)" stroke-width="2" stroke-miterlimit="10"/>
<path d="M233.233 250.653C267.33 222.809 291.677 196.349 287.614 191.551C283.55 186.754 252.615 205.437 218.518 233.28C184.421 261.124 160.074 287.585 164.137 292.382C168.201 297.179 199.136 278.496 233.233 250.653Z" stroke="url(#paint6_linear_2_11348)" stroke-width="2" stroke-miterlimit="10"/>
<path d="M234.411 251.259C271.686 218.892 298.164 188.5 293.55 183.378C288.937 178.257 254.98 200.344 217.705 232.712C180.43 265.079 153.952 295.471 158.565 300.593C163.179 305.714 197.136 283.627 234.411 251.259Z" stroke="url(#paint7_linear_2_11348)" stroke-width="2" stroke-miterlimit="10"/>
<path d="M235.733 251.997C276.087 214.766 304.485 180.075 299.161 174.511C293.836 168.948 256.806 194.619 216.452 231.849C176.097 269.08 147.7 303.771 153.024 309.335C158.348 314.898 195.378 289.227 235.733 251.997Z" stroke="url(#paint8_linear_2_11348)" stroke-width="2" stroke-miterlimit="10"/>
<path d="M237.058 252.916C280.461 210.385 310.691 171.031 304.577 165.017C298.464 159.003 258.324 188.606 214.921 231.137C171.518 273.669 141.289 313.022 147.402 319.036C153.515 325.051 193.656 295.448 237.058 252.916Z" stroke="url(#paint9_linear_2_11348)" stroke-width="2" stroke-miterlimit="10"/>
<path d="M238.813 253.778C285.047 205.617 316.783 161.259 309.699 154.703C302.614 148.146 259.391 181.874 213.158 230.035C166.924 278.196 135.188 322.553 142.273 329.11C149.357 335.666 192.58 301.939 238.813 253.778Z" stroke="url(#paint10_linear_2_11348)" stroke-width="2" stroke-miterlimit="10"/>
<path d="M240.797 254.766C289.603 200.642 322.521 150.988 314.321 143.859C306.121 136.73 259.908 174.827 211.101 228.95C162.295 283.074 129.377 332.728 137.577 339.857C145.778 346.986 191.991 308.889 240.797 254.766Z" stroke="url(#paint11_linear_2_11348)" stroke-width="2" stroke-miterlimit="10"/>
<path d="M243.276 256.127C294.308 195.75 327.918 140.481 318.346 132.681C308.773 124.881 259.643 167.503 208.611 227.881C157.578 288.259 123.968 343.528 133.541 351.328C143.113 359.128 192.243 316.505 243.276 256.127Z" stroke="url(#paint12_linear_2_11348)" stroke-width="2" stroke-miterlimit="10"/>
<path d="M246.405 257.452C299.211 190.555 332.879 129.369 321.603 120.788C310.328 112.208 258.38 159.483 205.573 226.38C152.767 293.277 119.099 354.463 130.374 363.044C141.65 371.624 193.598 324.349 246.405 257.452Z" stroke="url(#paint13_linear_2_11348)" stroke-width="2" stroke-miterlimit="10"/>
<path d="M250.088 259.035C304.038 185.523 336.968 118.284 323.639 108.854C310.311 99.4238 255.77 151.373 201.82 224.886C147.87 298.399 114.94 365.638 128.269 375.068C141.598 384.498 196.138 332.548 250.088 259.035Z" stroke="url(#paint14_linear_2_11348)" stroke-width="2" stroke-miterlimit="10"/>
<path d="M254.823 260.727C309.227 180.495 340.42 107.014 324.493 96.6025C308.567 86.1913 251.552 142.792 197.148 223.024C142.744 303.257 111.551 376.738 127.478 387.149C143.404 397.56 200.419 340.959 254.823 260.727Z" stroke="url(#paint15_linear_2_11348)" stroke-width="2" stroke-miterlimit="10"/>
<path d="M260.629 262.615C314.628 175.75 342.916 96.0519 323.814 84.6042C304.712 73.1566 245.453 134.295 191.454 221.16C137.456 308.025 109.167 387.724 128.269 399.171C147.371 410.619 206.631 349.481 260.629 262.615Z" stroke="url(#paint16_linear_2_11348)" stroke-width="2" stroke-miterlimit="10"/>
<path d="M267.543 264.587C320.171 171.267 344.184 85.4762 321.177 72.9677C298.17 60.4593 236.856 125.97 184.227 219.29C131.599 312.61 107.586 398.401 130.593 410.909C153.6 423.418 214.914 357.907 267.543 264.587Z" stroke="url(#paint17_linear_2_11348)" stroke-width="2" stroke-miterlimit="10"/>
<path d="M276.737 266.651C326.938 167.204 344.947 75.5445 316.96 61.9246C288.974 48.3048 225.59 117.882 175.388 217.329C125.187 316.777 107.178 408.436 135.164 422.056C163.151 435.676 226.535 366.099 276.737 266.651Z" stroke="url(#paint18_linear_2_11348)" stroke-width="2" stroke-miterlimit="10"/>
<path d="M287.879 268.425C334.502 163.321 344.56 66.2572 310.345 51.6258C276.13 36.9943 210.599 110.336 163.977 215.44C117.355 320.543 107.296 417.607 141.511 432.239C175.726 446.87 241.257 373.528 287.879 268.425Z" stroke="url(#paint19_linear_2_11348)" stroke-width="2" stroke-miterlimit="10"/>
<path d="M302.186 269.906C344.046 159.836 343.836 58.0884 301.718 42.6468C259.6 27.2053 191.522 103.917 149.663 213.987C107.804 324.057 108.013 425.805 150.131 441.246C192.25 456.688 260.327 379.976 302.186 269.906Z" stroke="url(#paint20_linear_2_11348)" stroke-width="2" stroke-miterlimit="10"/>
<path d="M320.369 270.606C356.325 156.384 343.217 50.9653 291.09 35.146C238.964 19.3268 167.559 99.0977 131.602 213.319C95.6456 327.541 108.754 432.96 160.881 448.779C213.007 464.599 284.412 384.828 320.369 270.606Z" stroke="url(#paint21_linear_2_11348)" stroke-width="2" stroke-miterlimit="10"/>
<path d="M343.174 269.88C372.22 152.343 343.304 44.5619 278.588 29.1439C213.871 13.7258 137.862 96.5096 108.815 214.047C79.7689 331.584 108.685 439.365 173.401 454.783C238.118 470.201 314.127 387.417 343.174 269.88Z" stroke="url(#paint22_linear_2_11348)" stroke-width="2" stroke-miterlimit="10"/>
<path d="M371.74 266.965C393.03 147.1 345.015 38.7533 264.494 24.9654C183.974 11.1774 101.44 97.1698 80.1492 217.035C58.8587 336.9 106.874 445.247 187.395 459.035C267.915 472.823 350.449 386.83 371.74 266.965Z" stroke="url(#paint23_linear_2_11348)" stroke-width="2" stroke-miterlimit="10"/>
<path d="M407.142 260.645C420.095 139.372 349.437 32.7034 249.322 22.3941C149.207 12.0848 57.5464 102.038 44.5927 223.311C31.639 344.584 102.297 451.253 202.412 461.562C302.528 471.871 394.188 381.917 407.142 260.645Z" stroke="url(#paint24_linear_2_11348)" stroke-width="2" stroke-miterlimit="10"/>
<path d="M225.999 462.879C350.263 462.879 450.999 363.97 450.999 241.96C450.999 119.951 350.263 21.042 225.999 21.042C101.735 21.042 0.999023 119.951 0.999023 241.96C0.999023 363.97 101.735 462.879 225.999 462.879Z" stroke="url(#paint25_linear_2_11348)" stroke-width="2" stroke-miterlimit="10"/>
<defs>
<linearGradient id="paint0_linear_2_11348" x1="222.564" y1="235.567" x2="229.262" y2="248.406" gradientUnits="userSpaceOnUse">
<stop stop-color="#FF2B06" stop-opacity="0.8"/>
<stop offset="1" stop-color="#FF2B06" stop-opacity="0.4"/>
</linearGradient>
<linearGradient id="paint1_linear_2_11348" x1="222.182" y1="235.273" x2="229.852" y2="248.692" gradientUnits="userSpaceOnUse">
<stop stop-color="#FF2B06" stop-opacity="0.8"/>
<stop offset="1" stop-color="#FF2B06" stop-opacity="0.4"/>
</linearGradient>
<linearGradient id="paint2_linear_2_11348" x1="221.621" y1="235.081" x2="230.284" y2="249.043" gradientUnits="userSpaceOnUse">
<stop stop-color="#FF2B06" stop-opacity="0.8"/>
<stop offset="1" stop-color="#FF2B06" stop-opacity="0.4"/>
</linearGradient>
<linearGradient id="paint3_linear_2_11348" x1="220.868" y1="234.757" x2="230.68" y2="249.426" gradientUnits="userSpaceOnUse">
<stop stop-color="#FF2B06" stop-opacity="0.8"/>
<stop offset="1" stop-color="#FF2B06" stop-opacity="0.4"/>
</linearGradient>
<linearGradient id="paint4_linear_2_11348" x1="220.279" y1="234.25" x2="231.42" y2="249.777" gradientUnits="userSpaceOnUse">
<stop stop-color="#FF2B06" stop-opacity="0.8"/>
<stop offset="1" stop-color="#FF2B06" stop-opacity="0.4"/>
</linearGradient>
<linearGradient id="paint5_linear_2_11348" x1="219.65" y1="233.771" x2="232.314" y2="250.293" gradientUnits="userSpaceOnUse">
<stop stop-color="#FF2B06" stop-opacity="0.8"/>
<stop offset="1" stop-color="#FF2B06" stop-opacity="0.4"/>
</linearGradient>
<linearGradient id="paint6_linear_2_11348" x1="218.518" y1="233.28" x2="232.916" y2="250.912" gradientUnits="userSpaceOnUse">
<stop stop-color="#FF2B06" stop-opacity="0.8"/>
<stop offset="1" stop-color="#FF2B06" stop-opacity="0.4"/>
</linearGradient>
<linearGradient id="paint7_linear_2_11348" x1="217.705" y1="232.712" x2="234.069" y2="251.557" gradientUnits="userSpaceOnUse">
<stop stop-color="#FF2B06" stop-opacity="0.8"/>
<stop offset="1" stop-color="#FF2B06" stop-opacity="0.4"/>
</linearGradient>
<linearGradient id="paint8_linear_2_11348" x1="216.452" y1="231.849" x2="235.358" y2="252.342" gradientUnits="userSpaceOnUse">
<stop stop-color="#FF2B06" stop-opacity="0.8"/>
<stop offset="1" stop-color="#FF2B06" stop-opacity="0.4"/>
</linearGradient>
<linearGradient id="paint9_linear_2_11348" x1="214.921" y1="231.137" x2="236.652" y2="253.314" gradientUnits="userSpaceOnUse">
<stop stop-color="#FF2B06" stop-opacity="0.8"/>
<stop offset="1" stop-color="#FF2B06" stop-opacity="0.4"/>
</linearGradient>
<linearGradient id="paint10_linear_2_11348" x1="213.158" y1="230.035" x2="238.371" y2="254.239" gradientUnits="userSpaceOnUse">
<stop stop-color="#FF2B06" stop-opacity="0.8"/>
<stop offset="1" stop-color="#FF2B06" stop-opacity="0.4"/>
</linearGradient>
<linearGradient id="paint11_linear_2_11348" x1="211.101" y1="228.95" x2="240.318" y2="255.297" gradientUnits="userSpaceOnUse">
<stop stop-color="#FF2B06" stop-opacity="0.8"/>
<stop offset="1" stop-color="#FF2B06" stop-opacity="0.4"/>
</linearGradient>
<linearGradient id="paint12_linear_2_11348" x1="208.611" y1="227.881" x2="242.757" y2="256.742" gradientUnits="userSpaceOnUse">
<stop stop-color="#FF2B06" stop-opacity="0.8"/>
<stop offset="1" stop-color="#FF2B06" stop-opacity="0.4"/>
</linearGradient>
<linearGradient id="paint13_linear_2_11348" x1="205.573" y1="226.38" x2="245.841" y2="258.166" gradientUnits="userSpaceOnUse">
<stop stop-color="#FF2B06" stop-opacity="0.8"/>
<stop offset="1" stop-color="#FF2B06" stop-opacity="0.4"/>
</linearGradient>
<linearGradient id="paint14_linear_2_11348" x1="201.82" y1="224.886" x2="249.48" y2="259.863" gradientUnits="userSpaceOnUse">
<stop stop-color="#FF2B06" stop-opacity="0.8"/>
<stop offset="1" stop-color="#FF2B06" stop-opacity="0.4"/>
</linearGradient>
<linearGradient id="paint15_linear_2_11348" x1="197.148" y1="223.024" x2="254.17" y2="261.69" gradientUnits="userSpaceOnUse">
<stop stop-color="#FF2B06" stop-opacity="0.8"/>
<stop offset="1" stop-color="#FF2B06" stop-opacity="0.4"/>
</linearGradient>
<linearGradient id="paint16_linear_2_11348" x1="191.454" y1="221.16" x2="259.936" y2="263.73" gradientUnits="userSpaceOnUse">
<stop stop-color="#FF2B06" stop-opacity="0.8"/>
<stop offset="1" stop-color="#FF2B06" stop-opacity="0.4"/>
</linearGradient>
<linearGradient id="paint17_linear_2_11348" x1="184.227" y1="219.29" x2="266.82" y2="265.869" gradientUnits="userSpaceOnUse">
<stop stop-color="#FF2B06" stop-opacity="0.8"/>
<stop offset="1" stop-color="#FF2B06" stop-opacity="0.4"/>
</linearGradient>
<linearGradient id="paint18_linear_2_11348" x1="175.388" y1="217.329" x2="275.997" y2="268.117" gradientUnits="userSpaceOnUse">
<stop stop-color="#FF2B06" stop-opacity="0.8"/>
<stop offset="1" stop-color="#FF2B06" stop-opacity="0.4"/>
</linearGradient>
<linearGradient id="paint19_linear_2_11348" x1="163.977" y1="215.44" x2="287.147" y2="270.076" gradientUnits="userSpaceOnUse">
<stop stop-color="#FF2B06" stop-opacity="0.8"/>
<stop offset="1" stop-color="#FF2B06" stop-opacity="0.4"/>
</linearGradient>
<linearGradient id="paint20_linear_2_11348" x1="149.663" y1="213.987" x2="301.493" y2="271.728" gradientUnits="userSpaceOnUse">
<stop stop-color="#FF2B06" stop-opacity="0.8"/>
<stop offset="1" stop-color="#FF2B06" stop-opacity="0.4"/>
</linearGradient>
<linearGradient id="paint21_linear_2_11348" x1="131.602" y1="213.319" x2="319.757" y2="272.55" gradientUnits="userSpaceOnUse">
<stop stop-color="#FF2B06" stop-opacity="0.8"/>
<stop offset="1" stop-color="#FF2B06" stop-opacity="0.4"/>
</linearGradient>
<linearGradient id="paint22_linear_2_11348" x1="108.815" y1="214.047" x2="342.689" y2="271.843" gradientUnits="userSpaceOnUse">
<stop stop-color="#FF2B06" stop-opacity="0.8"/>
<stop offset="1" stop-color="#FF2B06" stop-opacity="0.4"/>
</linearGradient>
<linearGradient id="paint23_linear_2_11348" x1="80.1492" y1="217.035" x2="371.419" y2="268.77" gradientUnits="userSpaceOnUse">
<stop stop-color="#FF2B06" stop-opacity="0.8"/>
<stop offset="1" stop-color="#FF2B06" stop-opacity="0.4"/>
</linearGradient>
<linearGradient id="paint24_linear_2_11348" x1="44.5927" y1="223.311" x2="406.995" y2="262.021" gradientUnits="userSpaceOnUse">
<stop stop-color="#FF2B06" stop-opacity="0.8"/>
<stop offset="1" stop-color="#FF2B06" stop-opacity="0.4"/>
</linearGradient>
<linearGradient id="paint25_linear_2_11348" x1="225.999" y1="21.042" x2="225.999" y2="462.879" gradientUnits="userSpaceOnUse">
<stop stop-color="#FF2B06" stop-opacity="0.8"/>
<stop offset="1" stop-color="#FF2B06" stop-opacity="0.4"/>
</linearGradient>
</defs>
</svg>
